<svg width="48" height="48" viewBox="0 0 48 48" fill="none" xmlns="http://www.w3.org/2000/svg">
<rect width="48" height="48" rx="24" fill="white"/>
<path d="M33.0001 23.9999C33.0001 24.1988 32.9211 24.3896 32.7804 24.5303C32.6398 24.6709 32.449 24.7499 32.2501 24.7499H17.5604L23.0307 30.2193C23.1004 30.289 23.1557 30.3717 23.1934 30.4628C23.2311 30.5538 23.2505 30.6514 23.2505 30.7499C23.2505 30.8485 23.2311 30.9461 23.1934 31.0371C23.1557 31.1281 23.1004 31.2109 23.0307 31.2806C22.961 31.3502 22.8783 31.4055 22.7873 31.4432C22.6962 31.4809 22.5986 31.5003 22.5001 31.5003C22.4016 31.5003 22.304 31.4809 22.2129 31.4432C22.1219 31.4055 22.0392 31.3502 21.9695 31.2806L15.2195 24.5306C15.1497 24.4609 15.0944 24.3782 15.0567 24.2871C15.0189 24.1961 14.9995 24.0985 14.9995 23.9999C14.9995 23.9014 15.0189 23.8038 15.0567 23.7127C15.0944 23.6217 15.1497 23.539 15.2195 23.4693L21.9695 16.7193C22.1102 16.5786 22.3011 16.4995 22.5001 16.4995C22.6991 16.4995 22.89 16.5786 23.0307 16.7193C23.1715 16.86 23.2505 17.0509 23.2505 17.2499C23.2505 17.449 23.1715 17.6398 23.0307 17.7806L17.5604 23.2499H32.2501C32.449 23.2499 32.6398 23.3289 32.7804 23.4696C32.9211 23.6103 33.0001 23.801 33.0001 23.9999Z" fill="black"/>
</svg>
