<svg width="17" height="18" viewBox="0 0 17 18" fill="none" xmlns="http://www.w3.org/2000/svg">
<path d="M16.2812 15.9694C16.3509 16.039 16.4062 16.1218 16.4439 16.2128C16.4816 16.3039 16.501 16.4014 16.501 16.5C16.501 16.5985 16.4816 16.6961 16.4439 16.7872C16.4062 16.8782 16.3509 16.9609 16.2812 17.0306C16.2115 17.1003 16.1288 17.1556 16.0378 17.1933C15.9467 17.231 15.8491 17.2504 15.7506 17.2504C15.652 17.2504 15.5545 17.231 15.4634 17.1933C15.3724 17.1556 15.2896 17.1003 15.22 17.0306L7.71996 9.53061C7.65023 9.46096 7.59491 9.37824 7.55717 9.2872C7.51943 9.19615 7.5 9.09855 7.5 8.99999C7.5 8.90143 7.51943 8.80383 7.55717 8.71278C7.59491 8.62174 7.65023 8.53902 7.71996 8.46936L15.22 0.969365C15.3607 0.828634 15.5516 0.749573 15.7506 0.749573C15.9496 0.749573 16.1405 0.828634 16.2812 0.969365C16.4219 1.1101 16.501 1.30097 16.501 1.49999C16.501 1.69901 16.4219 1.88988 16.2812 2.03061L9.3109 8.99999L16.2812 15.9694ZM1.8109 8.99999L8.78122 2.03061C8.92195 1.88988 9.00101 1.69901 9.00101 1.49999C9.00101 1.30097 8.92195 1.1101 8.78122 0.969365C8.64048 0.828634 8.44961 0.749573 8.25059 0.749573C8.05157 0.749573 7.8607 0.828634 7.71996 0.969365L0.219965 8.46936C0.150233 8.53902 0.0949134 8.62174 0.0571702 8.71278C0.019427 8.80383 0 8.90143 0 8.99999C0 9.09855 0.019427 9.19615 0.0571702 9.2872C0.0949134 9.37824 0.150233 9.46096 0.219965 9.53061L7.71996 17.0306C7.78965 17.1003 7.87237 17.1556 7.96342 17.1933C8.05446 17.231 8.15204 17.2504 8.25059 17.2504C8.34914 17.2504 8.44672 17.231 8.53776 17.1933C8.62881 17.1556 8.71153 17.1003 8.78122 17.0306C8.8509 16.9609 8.90617 16.8782 8.94389 16.7872C8.9816 16.6961 9.00101 16.5985 9.00101 16.5C9.00101 16.4014 8.9816 16.3039 8.94389 16.2128C8.90617 16.1218 8.8509 16.039 8.78122 15.9694L1.8109 8.99999Z" fill="black"/>
</svg>
