<?xml version="1.0" encoding="UTF-8"?>
<svg version="1.1" xmlns="http://www.w3.org/2000/svg" width="980" height="832">
<path d="M0 0 C4.85944792 1.51344907 7.96986945 4.30361073 11.6875 7.625 C12.94294189 8.72387822 14.19945555 9.82153315 15.45703125 10.91796875 C16.06627441 11.45083496 16.67551758 11.98370117 17.30322266 12.53271484 C20.21700163 15.05239997 23.2359909 17.43257806 26.2578125 19.8203125 C29.78044032 22.62035 33.26327566 25.46796936 36.75 28.3125 C41.85362153 32.47271574 46.99249938 36.57957494 52.1875 40.625 C57.87927246 45.06302137 63.40202634 49.67365678 68.890625 54.359375 C71.87459101 56.90375551 74.89947395 59.39531387 77.9375 61.875 C78.82308594 62.59816406 79.70867188 63.32132813 80.62109375 64.06640625 C82.04667132 65.22512694 83.47534261 66.38007967 84.91015625 67.52734375 C91.66924126 72.99107586 91.66924126 72.99107586 92.37109375 77.25390625 C91.8510219 81.10243791 89.72458404 83.17963414 87.1875 85.9375 C86.16442163 87.09567696 85.14365413 88.25589863 84.125 89.41796875 C83.60164062 90.0114209 83.07828125 90.60487305 82.5390625 91.21630859 C80.15261372 93.98207553 77.9205309 96.86002474 75.6875 99.75 C71.5830609 105.0288285 67.38537882 110.22124045 63.125 115.375 C62.5357373 116.08793213 61.94647461 116.80086426 61.33935547 117.53540039 C60.74912598 118.24946045 60.15889648 118.96352051 59.55078125 119.69921875 C52.04937696 128.7751184 44.61333012 137.90012185 37.375 147.1875 C33.34007746 152.36364973 29.16978934 157.40257717 24.90917969 162.39404297 C21.59542041 166.27983432 18.38039624 170.22983142 15.20703125 174.23046875 C12.43126589 177.71368581 9.62299213 181.16978197 6.8125 184.625 C5.98153809 185.64726685 5.98153809 185.64726685 5.13378906 186.69018555 C2.31219538 190.16045405 -0.51219949 193.62841002 -3.33984375 197.09375 C-8.49292667 203.41469203 -13.61282979 209.75404844 -18.625 216.1875 C-22.58874751 221.273522 -26.68989744 226.21633485 -30.88208008 231.11499023 C-34.60046176 235.47953203 -38.14505256 239.96238696 -41.6640625 244.48828125 C-45.9404866 249.96933186 -50.36593509 255.3211285 -54.80126953 260.67382812 C-58.49932675 265.14759518 -62.12478637 269.66789721 -65.6875 274.25 C-69.62876108 279.31733567 -73.70863429 284.23831234 -77.88232422 289.11523438 C-81.60057437 293.47973614 -85.14512287 297.96247739 -88.6640625 302.48828125 C-92.9404866 307.96933186 -97.36593509 313.3211285 -101.80126953 318.67382812 C-105.49932675 323.14759518 -109.12478637 327.66789721 -112.6875 332.25 C-116.62876108 337.31733567 -120.70863429 342.23831234 -124.88232422 347.11523438 C-128.12410421 350.92045294 -131.24350285 354.80446596 -134.3125 358.75 C-138.41880687 364.02742499 -142.6145689 369.22117721 -146.875 374.375 C-147.4642627 375.08793213 -148.05352539 375.80086426 -148.66064453 376.53540039 C-149.54598877 377.60649048 -149.54598877 377.60649048 -150.44921875 378.69921875 C-157.95061967 387.77511432 -165.38676658 396.90005089 -172.625 406.1875 C-176.58884733 411.27344746 -180.68989353 416.21633028 -184.88208008 421.11499023 C-188.59808865 425.47674653 -192.1403162 429.95679796 -195.6574707 434.47949219 C-200.00998249 440.05722951 -204.50789657 445.50994028 -209.01660156 450.96166992 C-212.68328031 455.39653302 -216.31076975 459.85786513 -219.890625 464.36328125 C-222.67525618 467.84407023 -225.49568627 471.29524046 -228.3125 474.75 C-232.47255358 479.85375003 -236.57972626 484.99237856 -240.625 490.1875 C-244.5886014 495.27363229 -248.68990285 500.21634116 -252.88208008 505.11499023 C-256.59808865 509.47674653 -260.1403162 513.95679796 -263.6574707 518.47949219 C-268.00998249 524.05722951 -272.50789657 529.50994028 -277.01660156 534.96166992 C-280.68328031 539.39653302 -284.31076975 543.85786513 -287.890625 548.36328125 C-290.67525618 551.84407023 -293.49568627 555.29524046 -296.3125 558.75 C-300.47255358 563.85375003 -304.57972626 568.99237856 -308.625 574.1875 C-312.5886014 579.27363229 -316.68990285 584.21634116 -320.88208008 589.11499023 C-324.59808865 593.47674653 -328.1403162 597.95679796 -331.6574707 602.47949219 C-336.00998249 608.05722951 -340.50789657 613.50994028 -345.01660156 618.96166992 C-348.68328031 623.39653302 -352.31076975 627.85786513 -355.890625 632.36328125 C-358.67525618 635.84407023 -361.49568627 639.29524046 -364.3125 642.75 C-368.47255358 647.85375003 -372.57972626 652.99237856 -376.625 658.1875 C-380.5886014 663.27363229 -384.68990285 668.21634116 -388.88208008 673.11499023 C-392.60046176 677.47953203 -396.14505256 681.96238696 -399.6640625 686.48828125 C-403.9404866 691.96933186 -408.36593509 697.3211285 -412.80126953 702.67382812 C-416.49932675 707.14759518 -420.12478637 711.66789721 -423.6875 716.25 C-427.62876108 721.31733567 -431.70863429 726.23831234 -435.88232422 731.11523438 C-439.59820129 735.47695061 -443.14038653 739.9568884 -446.6574707 744.47949219 C-451.00709396 750.05352785 -455.50166022 755.50292921 -460.0078125 760.95068359 C-463.77039308 765.50095043 -467.48878489 770.08188986 -471.1640625 774.703125 C-473.89592973 778.12086527 -476.67467568 781.4996909 -479.44921875 784.8828125 C-482.47775564 788.57910602 -485.48828508 792.28999827 -488.5 796 C-492.853234 801.36176547 -497.20990529 806.7203869 -501.6015625 812.05078125 C-503.53515672 814.42840932 -505.44050084 816.82259372 -507.3359375 819.23046875 C-508.21282227 820.33455078 -508.21282227 820.33455078 -509.10742188 821.4609375 C-510.26978682 822.92513201 -511.4249726 824.39505969 -512.57226562 825.87109375 C-513.10271484 826.53625 -513.63316406 827.20140625 -514.1796875 827.88671875 C-514.65132324 828.48701904 -515.12295898 829.08731934 -515.60888672 829.70581055 C-517 831 -517 831 -520 831 C-522.15024863 829.14738512 -524.12772675 827.27742868 -526.11912918 825.26398087 C-526.74421183 824.64385774 -527.36929447 824.02373461 -528.01331902 823.38481987 C-530.12881595 821.2823882 -532.23336052 819.1693151 -534.3381958 817.05621338 C-535.85879089 815.540502 -537.38003687 814.02544339 -538.90188098 812.51098609 C-543.0996332 808.32972224 -547.28788206 804.13904857 -551.47467613 799.94681597 C-555.98464436 795.43418848 -560.50317942 790.93015338 -565.02059937 786.42498779 C-573.87577929 777.59091039 -582.72264529 768.74855279 -591.56638005 759.90301922 C-598.75076515 752.71726289 -605.93773427 745.53410055 -613.12654877 738.35277557 C-614.15808061 737.32229405 -615.1896111 736.29181117 -616.22114025 735.26132695 C-616.73315851 734.74982804 -617.24517677 734.23832912 -617.77271073 733.71133024 C-618.28564709 733.19891403 -618.79858344 732.68649782 -619.32706332 732.15855384 C-619.8408366 731.64530456 -620.35460987 731.13205527 -620.88395204 730.60325298 C-635.34086548 716.16092982 -649.79461814 701.71544954 -664.24193192 687.2635231 C-665.05946154 686.44573555 -665.05946154 686.44573555 -665.89350691 685.61142704 C-668.65609439 682.84795061 -671.41865393 680.08444626 -674.18120375 677.32093218 C-674.72988973 676.77205517 -675.2785757 676.22317816 -675.84388852 675.65766852 C-676.95346501 674.54770494 -678.06303989 673.43773974 -679.17261314 672.32777293 C-696.44305943 655.05135474 -713.72418104 637.78567885 -731.01367188 620.52832031 C-750.42271944 601.15531334 -769.8234125 581.77399433 -789.211972 562.38048148 C-791.27752638 560.3144571 -793.34311063 558.2484626 -795.40871429 556.18248749 C-796.17165524 555.41939296 -796.17165524 555.41939296 -796.95000914 554.64088238 C-804.64295025 546.94674426 -812.34246584 539.25922635 -820.04532623 531.57501984 C-828.80072292 522.84081523 -837.54720536 514.09781111 -846.28252414 505.34352234 C-850.74386845 500.87298001 -855.20922643 496.40664333 -859.68542862 491.95097351 C-863.77682152 487.87814161 -867.8566651 483.79411159 -871.92731032 479.700546 C-873.40801064 478.21562209 -874.8930168 476.73497785 -876.38254395 475.2589083 C-878.39477642 473.2636339 -880.39123671 471.25384209 -882.38423538 469.2393837 C-882.97640398 468.65949263 -883.56857257 468.07960156 -884.17868567 467.48213804 C-885.76802373 465.85642076 -885.76802373 465.85642076 -888 463 C-887.53462665 459.43904425 -886.17060599 457.79871819 -883.65281677 455.29205322 C-882.93623901 454.57135147 -882.21966125 453.85064972 -881.48136902 453.10810852 C-880.69015152 452.32767685 -879.89893402 451.54724518 -879.08374023 450.74316406 C-878.25454071 449.91352646 -877.42534119 449.08388885 -876.5710144 448.22911072 C-874.2975863 445.95741454 -872.0176397 443.69251394 -869.73463321 441.43045139 C-867.34963705 439.06420866 -864.9731335 436.68946787 -862.59571838 434.31561279 C-858.09328535 429.82250414 -853.58325962 425.33709754 -849.07046038 420.85440326 C-843.93282269 415.75029731 -838.80370066 410.63767048 -833.67527854 405.52430773 C-823.12630473 395.00669184 -812.56667697 384.49983225 -802 374 C-798.82820256 375.40272998 -796.69442737 377.05723798 -794.25050735 379.5061903 C-793.51596368 380.23736858 -792.78142001 380.96854685 -792.02461743 381.72188205 C-791.22462662 382.52838067 -790.4246358 383.33487929 -789.60040283 384.16581726 C-788.31742408 385.44729109 -788.31742408 385.44729109 -787.00852656 386.75465328 C-784.63502729 389.12736394 -782.26610453 391.50448331 -779.89898205 393.88354576 C-777.34490728 396.4483068 -774.7850467 399.00728131 -772.2258606 401.56694031 C-767.79085024 406.00431405 -763.35946559 410.44528214 -758.93045807 414.88864708 C-752.51864337 421.32114693 -746.1008317 427.7476364 -739.6814464 434.1725801 C-729.25592385 444.60736244 -718.83450862 455.04623644 -708.41601562 465.48803711 C-707.79234701 466.11309904 -707.1686784 466.73816096 -706.52611074 467.38216416 C-705.90168573 468.00798469 -705.27726073 468.63380523 -704.63391376 469.27859002 C-695.7921264 478.14012187 -686.9493862 487.0007014 -678.10546875 495.86010742 C-677.17292632 496.79428613 -677.17292632 496.79428613 -676.22154465 497.74733713 C-665.84505605 508.14186684 -655.46652392 518.53435463 -645.0869472 528.92580062 C-638.68763211 535.33269574 -632.29040065 541.74165871 -625.89587519 548.1533343 C-621.51027157 552.55053304 -617.12295336 556.94601592 -612.73430207 561.34017291 C-610.20443833 563.87335816 -607.67542249 566.40737534 -605.14864731 568.94364166 C-602.40433516 571.69824303 -599.65610532 574.44891492 -596.90753174 577.19926453 C-596.11646381 577.99460954 -595.32539587 578.78995455 -594.51035619 579.60940093 C-590.35454141 583.76098918 -586.11465689 587.74602409 -581.65529561 591.5707863 C-579.68908017 593.26845409 -577.83417756 595.05165481 -576.00585938 596.89648438 C-575.33155884 597.57408813 -574.6572583 598.25169189 -573.96252441 598.9498291 C-573.26332886 599.657323 -572.5641333 600.36481689 -571.84375 601.09375 C-570.72389709 602.21928284 -570.72389709 602.21928284 -569.5814209 603.36755371 C-566.42298888 606.54216504 -563.27060721 609.72275916 -560.11767578 612.90283203 C-557.79930255 615.23940361 -555.4778448 617.57287999 -553.15625 619.90625 C-552.45705444 620.6137439 -551.75785889 621.32123779 -551.03747559 622.0501709 C-544.85974202 628.25816757 -538.3671867 634.0009772 -531.5 639.4375 C-530.6440625 640.11683594 -529.788125 640.79617188 -528.90625 641.49609375 C-528.2771875 641.99238281 -527.648125 642.48867188 -527 643 C-523.91245655 641.65353997 -522.11003346 640.26519425 -520.00390625 637.6484375 C-519.4519458 636.97014893 -518.89998535 636.29186035 -518.33129883 635.59301758 C-517.74759521 634.86107178 -517.1638916 634.12912598 -516.5625 633.375 C-515.94850342 632.61662842 -515.33450684 631.85825684 -514.7019043 631.0769043 C-513.42406855 629.49774627 -512.14911544 627.91625161 -510.87695312 626.33251953 C-509.12044665 624.14968097 -507.35246589 621.97694573 -505.578125 619.80859375 C-500.44243949 613.52825775 -495.36217033 607.21145335 -490.375 600.8125 C-486.34007746 595.63635027 -482.16978934 590.59742283 -477.90917969 585.60595703 C-474.59777918 581.72293164 -471.38431482 577.77645142 -468.21484375 573.77734375 C-465.3990022 570.24636784 -462.54197784 566.74975881 -459.6875 563.25 C-455.52735335 558.14632729 -451.42027211 553.00761935 -447.375 547.8125 C-443.4113986 542.72636771 -439.31009715 537.78365884 -435.11791992 532.88500977 C-431.39953824 528.52046797 -427.85494744 524.03761304 -424.3359375 519.51171875 C-420.0595134 514.03066814 -415.63406491 508.6788715 -411.19873047 503.32617188 C-407.50067325 498.85240482 -403.87521363 494.33210279 -400.3125 489.75 C-396.37123892 484.68266433 -392.29136571 479.76168766 -388.11767578 474.88476562 C-384.39942563 470.52026386 -380.85487713 466.03752261 -377.3359375 461.51171875 C-373.0595134 456.03066814 -368.63406491 450.6788715 -364.19873047 445.32617188 C-360.50067325 440.85240482 -356.87521363 436.33210279 -353.3125 431.75 C-349.37123892 426.68266433 -345.29136571 421.76168766 -341.11767578 416.88476562 C-337.40179871 412.52304939 -333.85961347 408.0431116 -330.3425293 403.52050781 C-325.99001751 397.94277049 -321.49210343 392.49005972 -316.98339844 387.03833008 C-313.31671969 382.60346698 -309.68923025 378.14213487 -306.109375 373.63671875 C-303.32474382 370.15592977 -300.50431373 366.70475954 -297.6875 363.25 C-293.52744642 358.14624997 -289.42027374 353.00762144 -285.375 347.8125 C-281.41492918 342.73089818 -277.31788148 337.79204423 -273.12890625 332.89819336 C-269.2870202 328.3893132 -265.62146753 323.75680032 -261.97998047 319.08544922 C-258.52796049 314.65943571 -255.00273873 310.30042871 -251.4375 305.96484375 C-244.32808998 297.31734021 -237.25455952 288.64436695 -230.375 279.8125 C-226.41129866 274.72644232 -222.31010108 269.78366342 -218.11791992 264.88500977 C-214.40191135 260.52325347 -210.8596838 256.04320204 -207.3425293 251.52050781 C-202.99001751 245.94277049 -198.49210343 240.49005972 -193.98339844 235.03833008 C-190.31671969 230.60346698 -186.68923025 226.14213487 -183.109375 221.63671875 C-180.32474382 218.15592977 -177.50431373 214.70475954 -174.6875 211.25 C-170.52744642 206.14624997 -166.42027374 201.00762144 -162.375 195.8125 C-158.4113986 190.72636771 -154.31009715 185.78365884 -150.11791992 180.88500977 C-146.40191135 176.52325347 -142.8596838 172.04320204 -139.3425293 167.52050781 C-134.99001751 161.94277049 -130.49210343 156.49005972 -125.98339844 151.03833008 C-122.31671969 146.60346698 -118.68923025 142.14213487 -115.109375 137.63671875 C-112.32474316 134.15592895 -109.50425028 130.70481217 -106.6875 127.25 C-102.59422398 122.22648737 -98.54638425 117.17314684 -94.5625 112.0625 C-89.34207814 105.37308684 -83.95001973 98.83183089 -78.54296875 92.29296875 C-75.15297091 88.19182141 -71.78991222 84.06940135 -68.4375 79.9375 C-67.90527832 79.28152832 -67.37305664 78.62555664 -66.82470703 77.94970703 C-65.75261853 76.62788727 -64.6806781 75.30594741 -63.60888672 73.98388672 C-60.90837255 70.65393555 -58.20399757 67.32712266 -55.5 64 C-52.2024585 59.94194712 -48.90530236 55.88358278 -45.609375 51.82421875 C-42.88897904 48.4738902 -40.16727099 45.12463243 -37.44433594 41.77636719 C-36.15235001 40.187373 -34.86127056 38.59764188 -33.5703125 37.0078125 C-10.03800569 8.11583439 -10.03800569 8.11583439 0 0 Z " fill="#020202" transform="translate(888,0)"/>
<path d="M0 0 C-1.38202504 3.11072356 -2.9720187 5.21508418 -5.38478088 7.60510254 C-6.08445984 8.30319534 -6.78413879 9.00128815 -7.50502014 9.72053528 C-8.27236984 10.47598129 -9.03971954 11.23142731 -9.83032227 12.00976562 C-10.63855438 12.81347092 -11.4467865 13.61717621 -12.2795105 14.44523621 C-14.03488658 16.18965334 -15.79252981 17.93179135 -17.55215645 19.67192078 C-20.33425364 22.42390421 -23.1096627 25.18247059 -25.88328552 27.94299316 C-32.77181767 34.79746614 -39.66964121 41.6425685 -46.57226562 48.48284912 C-52.40557633 54.2635105 -58.23307757 60.04988396 -64.05189323 65.84513855 C-65.89306361 67.67571845 -67.73714436 69.50337585 -69.58413887 71.32807922 C-72.16255283 73.87541904 -74.73173948 76.4317339 -77.29907227 78.99023438 C-78.0684462 79.74568039 -78.83782013 80.5011264 -79.63050842 81.27946472 C-80.32736755 81.97755753 -81.02422668 82.67565033 -81.74220276 83.39489746 C-82.35075387 83.99808556 -82.95930498 84.60127365 -83.58629704 85.22274017 C-85.12477796 87.15686665 -85.59649069 88.58390645 -86 91 C-86.66 90.34 -87.32 89.68 -88 89 C-87.68928756 85.46993744 -86.11205039 83.73717038 -83.66627502 81.29205322 C-82.95258759 80.57135147 -82.23890015 79.85064972 -81.50358582 79.10810852 C-80.71551041 78.32767685 -79.927435 77.54724518 -79.11547852 76.74316406 C-77.87649811 75.49870766 -77.87649811 75.49870766 -76.61248779 74.22911072 C-73.87531718 71.48382184 -71.12741828 68.74955558 -68.37890625 66.015625 C-66.47816581 64.11685955 -64.57937525 62.21614805 -62.68040466 60.31561279 C-58.69829683 56.33262225 -54.71025152 52.35565433 -50.71850586 48.38232422 C-46.09909147 43.78409887 -41.48859203 39.17708313 -36.88287979 34.56513619 C-32.45537942 30.1319488 -28.02224265 25.70444181 -23.58628654 21.27971649 C-21.69661241 19.39469492 -19.80884575 17.50779273 -17.92254829 15.6193924 C-15.29123466 12.98770989 -12.65354897 10.36259218 -10.01391602 7.73925781 C-9.22786484 6.95072922 -8.44181366 6.16220062 -7.63194275 5.34977722 C-6.91543549 4.64035477 -6.19892822 3.93093231 -5.46070862 3.20001221 C-4.83703179 2.57838825 -4.21335497 1.9567643 -3.57077885 1.31630325 C-2 0 -2 0 0 0 Z " fill="#686868" transform="translate(88,374)"/>
</svg>
