<svg width="15" height="16" viewBox="0 0 15 16" fill="none" xmlns="http://www.w3.org/2000/svg">
<path d="M7.9425 8.75001L6.2175 10.4675C6.1472 10.5372 6.09141 10.6202 6.05333 10.7116C6.01525 10.803 5.99565 10.901 5.99565 11C5.99565 11.099 6.01525 11.1971 6.05333 11.2884C6.09141 11.3798 6.1472 11.4628 6.2175 11.5325C6.28722 11.6028 6.37017 11.6586 6.46157 11.6967C6.55296 11.7348 6.65099 11.7544 6.75 11.7544C6.84901 11.7544 6.94704 11.7348 7.03843 11.6967C7.12983 11.6586 7.21278 11.6028 7.2825 11.5325L10.2825 8.53251C10.3508 8.46119 10.4043 8.37708 10.44 8.28501C10.515 8.10242 10.515 7.89761 10.44 7.71501C10.4043 7.62295 10.3508 7.53884 10.2825 7.46751L7.2825 4.46751C7.21257 4.39758 7.12955 4.34211 7.03819 4.30427C6.94682 4.26642 6.84889 4.24694 6.75 4.24694C6.65111 4.24694 6.55318 4.26642 6.46181 4.30427C6.37045 4.34211 6.28743 4.39758 6.2175 4.46751C6.14757 4.53744 6.0921 4.62046 6.05426 4.71183C6.01641 4.80319 5.99693 4.90112 5.99693 5.00001C5.99693 5.09891 6.01641 5.19683 6.05426 5.2882C6.0921 5.37957 6.14757 5.46258 6.2175 5.53251L7.9425 7.25001H0.75C0.551088 7.25001 0.360322 7.32903 0.21967 7.46968C0.0790176 7.61034 0 7.8011 0 8.00001C0 8.19893 0.0790176 8.38969 0.21967 8.53034C0.360322 8.671 0.551088 8.75001 0.75 8.75001H7.9425ZM7.5 0.500014C6.09832 0.493756 4.72293 0.880423 3.52985 1.61616C2.33677 2.35189 1.37374 3.40725 0.75 4.66251C0.660489 4.84154 0.645761 5.04878 0.709054 5.23866C0.772348 5.42854 0.908479 5.5855 1.0875 5.67501C1.26652 5.76452 1.47377 5.77925 1.66365 5.71596C1.85353 5.65267 2.01049 5.51653 2.1 5.33751C2.57414 4.38 3.29537 3.56648 4.18916 2.981C5.08295 2.39553 6.11687 2.05935 7.18407 2.00721C8.25127 1.95506 9.31303 2.18885 10.2596 2.6844C11.2062 3.17995 12.0034 3.91929 12.5686 4.82601C13.1338 5.73274 13.4467 6.77395 13.4748 7.84205C13.5029 8.91015 13.2453 9.9664 12.7286 10.9016C12.2119 11.8368 11.4549 12.6171 10.5357 13.1618C9.61645 13.7065 8.56847 13.9959 7.5 14C6.38166 14.0049 5.28462 13.6943 4.33477 13.1039C3.38492 12.5136 2.62077 11.6674 2.13 10.6625C2.04049 10.4835 1.88353 10.3474 1.69365 10.2841C1.50377 10.2208 1.29652 10.2355 1.1175 10.325C0.938479 10.4145 0.802348 10.5715 0.739054 10.7614C0.675761 10.9512 0.690489 11.1585 0.78 11.3375C1.37462 12.5341 2.27814 13.5502 3.3971 14.2805C4.51607 15.0109 5.80984 15.4291 7.14459 15.4918C8.47935 15.5544 9.80661 15.2594 10.9891 14.6371C12.1716 14.0149 13.1664 13.088 13.8706 11.9524C14.5747 10.8168 14.9627 9.51362 14.9944 8.17777C15.026 6.84191 14.7002 5.52186 14.0507 4.35414C13.4011 3.18642 12.4514 2.21344 11.2997 1.53584C10.148 0.858247 8.83623 0.500641 7.5 0.500014Z" fill="white"/>
</svg>
