<svg width="48" height="48" viewBox="0 0 48 48" fill="none" xmlns="http://www.w3.org/2000/svg">
<rect width="48" height="48" rx="24" fill="#2ECC71"/>
<path d="M33.3103 18.8784L29.1216 14.6887C28.9823 14.5494 28.8169 14.4389 28.6349 14.3635C28.4529 14.2881 28.2578 14.2493 28.0608 14.2493C27.8638 14.2493 27.6687 14.2881 27.4867 14.3635C27.3047 14.4389 27.1393 14.5494 27 14.6887L15.4397 26.25C15.2998 26.3888 15.1889 26.554 15.1134 26.736C15.0379 26.918 14.9994 27.1132 15 27.3103V31.5C15 31.8978 15.158 32.2793 15.4393 32.5606C15.7207 32.8419 16.1022 33 16.5 33H20.6897C20.8868 33.0006 21.082 32.9621 21.264 32.8866C21.446 32.8111 21.6112 32.7002 21.75 32.5603L33.3103 21C33.4496 20.8607 33.5602 20.6953 33.6356 20.5133C33.711 20.3313 33.7498 20.1362 33.7498 19.9392C33.7498 19.7422 33.711 19.5471 33.6356 19.3651C33.5602 19.1831 33.4496 19.0177 33.3103 18.8784ZM20.6897 31.5H16.5V27.3103L24.75 19.0603L28.9397 23.25L20.6897 31.5ZM30 22.1887L25.8103 18L28.0603 15.75L32.25 19.9387L30 22.1887Z" fill="white"/>
</svg>
