<svg width="18" height="18" viewBox="0 0 18 18" fill="none" xmlns="http://www.w3.org/2000/svg">
<path d="M9.0825 11.5426L6.1725 14.4526C5.82018 14.7926 5.34964 14.9826 4.86 14.9826C4.37036 14.9826 3.89982 14.7926 3.5475 14.4526C3.3747 14.2805 3.23759 14.0759 3.14404 13.8507C3.05048 13.6255 3.00233 13.384 3.00233 13.1401C3.00233 12.8962 3.05048 12.6547 3.14404 12.4295C3.23759 12.2042 3.3747 11.9997 3.5475 11.8276L6.4575 8.91757C6.59873 8.77634 6.67807 8.5848 6.67807 8.38507C6.67807 8.18534 6.59873 7.9938 6.4575 7.85257C6.31627 7.71134 6.12473 7.632 5.925 7.632C5.72527 7.632 5.53373 7.71134 5.3925 7.85257L2.4825 10.7701C1.89627 11.4082 1.57921 12.2481 1.59756 13.1144C1.6159 13.9807 1.96821 14.8064 2.58092 15.4191C3.19364 16.0319 4.01937 16.3842 4.88568 16.4025C5.752 16.4209 6.5919 16.1038 7.23 15.5176L10.1475 12.6076C10.2174 12.5376 10.2729 12.4546 10.3107 12.3633C10.3486 12.2719 10.3681 12.174 10.3681 12.0751C10.3681 11.9762 10.3486 11.8783 10.3107 11.7869C10.2729 11.6955 10.2174 11.6125 10.1475 11.5426C10.0776 11.4726 9.99455 11.4172 9.90319 11.3793C9.81182 11.3415 9.71389 11.322 9.615 11.322C9.51611 11.322 9.41818 11.3415 9.32681 11.3793C9.23545 11.4172 9.15243 11.4726 9.0825 11.5426ZM15.5175 2.48257C14.8866 1.85558 14.0332 1.50366 13.1437 1.50366C12.2543 1.50366 11.4009 1.85558 10.77 2.48257L7.8525 5.39257C7.78257 5.4625 7.7271 5.54552 7.68925 5.63688C7.65141 5.72825 7.63193 5.82618 7.63193 5.92507C7.63193 6.02397 7.65141 6.12189 7.68925 6.21326C7.7271 6.30462 7.78257 6.38764 7.8525 6.45757C7.92243 6.5275 8.00545 6.58297 8.09681 6.62082C8.18818 6.65866 8.28611 6.67814 8.385 6.67814C8.48389 6.67814 8.58182 6.65866 8.67319 6.62082C8.76455 6.58297 8.84757 6.5275 8.9175 6.45757L11.8275 3.54757C12.1798 3.20754 12.6504 3.01751 13.14 3.01751C13.6296 3.01751 14.1002 3.20754 14.4525 3.54757C14.6253 3.71969 14.7624 3.92423 14.856 4.14946C14.9495 4.37469 14.9977 4.61618 14.9977 4.86007C14.9977 5.10396 14.9495 5.34545 14.856 5.57068C14.7624 5.79591 14.6253 6.00046 14.4525 6.17257L11.5425 9.08257C11.4722 9.15229 11.4164 9.23524 11.3783 9.32664C11.3403 9.41803 11.3207 9.51606 11.3207 9.61507C11.3207 9.71408 11.3403 9.81211 11.3783 9.9035C11.4164 9.9949 11.4722 10.0778 11.5425 10.1476C11.6122 10.2179 11.6952 10.2737 11.7866 10.3117C11.878 10.3498 11.976 10.3694 12.075 10.3694C12.174 10.3694 12.272 10.3498 12.3634 10.3117C12.4548 10.2737 12.5378 10.2179 12.6075 10.1476L15.5175 7.23007C16.1445 6.59916 16.4964 5.7458 16.4964 4.85632C16.4964 3.96684 16.1445 3.11349 15.5175 2.48257ZM6.6225 11.3776C6.69258 11.4471 6.77569 11.5021 6.86707 11.5394C6.95845 11.5767 7.05629 11.5956 7.155 11.5951C7.2537 11.5956 7.35155 11.5767 7.44293 11.5394C7.53431 11.5021 7.61742 11.4471 7.6875 11.3776L11.3775 7.68757C11.5187 7.54634 11.5981 7.3548 11.5981 7.15507C11.5981 6.95534 11.5187 6.7638 11.3775 6.62257C11.2363 6.48134 11.0447 6.402 10.845 6.402C10.6453 6.402 10.4537 6.48134 10.3125 6.62257L6.6225 10.3126C6.5522 10.3823 6.49641 10.4652 6.45833 10.5566C6.42025 10.648 6.40065 10.7461 6.40065 10.8451C6.40065 10.9441 6.42025 11.0421 6.45833 11.1335C6.49641 11.2249 6.5522 11.3078 6.6225 11.3776Z" fill="white"/>
</svg>
