<svg width="18" height="18" viewBox="0 0 18 18" fill="none" xmlns="http://www.w3.org/2000/svg">
<path d="M3.57001 7.94256C3.76893 7.96842 3.96996 7.9142 4.1289 7.79183C4.28784 7.66946 4.39165 7.48897 4.41751 7.29006C4.44337 7.09115 4.38915 6.89011 4.26679 6.73117C4.14442 6.57223 3.96393 6.46842 3.76501 6.44256L2.44501 6.11256C2.34878 6.08306 2.24759 6.07323 2.14748 6.08366C2.04736 6.09409 1.95037 6.12456 1.86228 6.17327C1.7742 6.22197 1.69681 6.28791 1.63475 6.36715C1.57268 6.44639 1.5272 6.53732 1.50101 6.6345C1.47483 6.73169 1.46847 6.83316 1.48233 6.93286C1.49618 7.03256 1.52997 7.12844 1.58166 7.21481C1.63336 7.30118 1.70191 7.37625 1.78323 7.43557C1.86455 7.49488 1.95698 7.53722 2.05501 7.56006L3.37501 7.91256C3.43791 7.93325 3.5038 7.94339 3.57001 7.94256ZM6.46501 3.75006C6.50896 3.91368 6.60702 4.0576 6.74321 4.15838C6.87939 4.25916 7.04569 4.31086 7.21501 4.30506C7.27958 4.31569 7.34545 4.31569 7.41001 4.30506C7.60037 4.2524 7.76228 4.12677 7.86057 3.95546C7.95886 3.78415 7.98561 3.58098 7.93501 3.39006L7.58251 2.07006C7.55967 1.97203 7.51734 1.8796 7.45802 1.79828C7.39871 1.71695 7.32363 1.6484 7.23727 1.59671C7.1509 1.54501 7.05501 1.51123 6.95531 1.49737C6.85562 1.48352 6.75415 1.48987 6.65696 1.51606C6.55977 1.54224 6.46885 1.58773 6.3896 1.64979C6.31036 1.71186 6.24443 1.78924 6.19572 1.87733C6.14702 1.96542 6.11654 2.06241 6.10611 2.16252C6.09568 2.26263 6.10551 2.36382 6.13501 2.46006L6.46501 3.75006ZM10.0875 11.2501C10.0174 11.1763 9.93311 11.1176 9.83963 11.0774C9.74616 11.0373 9.64549 11.0166 9.54376 11.0166C9.44204 11.0166 9.34137 11.0373 9.24789 11.0774C9.15441 11.1176 9.07008 11.1763 9.00001 11.2501L6.37501 13.9201C6.06638 14.2162 5.65522 14.3815 5.22751 14.3815C4.7998 14.3815 4.38865 14.2162 4.08001 13.9201C3.92808 13.7701 3.80745 13.5914 3.72512 13.3944C3.64278 13.1974 3.60039 12.9861 3.60039 12.7726C3.60039 12.5591 3.64278 12.3477 3.72512 12.1507C3.80745 11.9537 3.92808 11.7751 4.08001 11.6251L6.75001 9.00006C6.82852 8.93282 6.89229 8.85008 6.93731 8.75704C6.98232 8.66399 7.00762 8.56264 7.01161 8.45935C7.0156 8.35606 6.9982 8.25306 6.96049 8.15682C6.92279 8.06057 6.86559 7.97316 6.7925 7.90007C6.71941 7.82698 6.632 7.76979 6.53576 7.73208C6.43951 7.69437 6.33651 7.67697 6.23322 7.68096C6.12993 7.68495 6.02858 7.71025 5.93554 7.75526C5.84249 7.80028 5.75975 7.86405 5.69251 7.94256L3.00001 10.5601C2.70848 10.8516 2.47722 11.1977 2.31944 11.5786C2.16167 11.9595 2.08046 12.3678 2.08046 12.7801C2.08046 13.1924 2.16167 13.6006 2.31944 13.9815C2.47722 14.3624 2.70848 14.7085 3.00001 15.0001C3.29155 15.2916 3.63765 15.5229 4.01856 15.6806C4.39947 15.8384 4.80772 15.9196 5.22001 15.9196C5.63231 15.9196 6.04056 15.8384 6.42147 15.6806C6.80238 15.5229 7.14848 15.2916 7.44001 15.0001L10.0875 12.3526C10.1636 12.2823 10.2244 12.1971 10.266 12.1022C10.3075 12.0073 10.329 11.9049 10.329 11.8013C10.329 11.6977 10.3075 11.5953 10.266 11.5004C10.2244 11.4055 10.1636 11.3203 10.0875 11.2501ZM3.88501 4.94256C4.02471 5.08112 4.21326 5.15923 4.41001 5.16006C4.50872 5.16063 4.60656 5.14171 4.69794 5.10439C4.78932 5.06706 4.87243 5.01207 4.94251 4.94256C5.0822 4.80204 5.16061 4.61195 5.16061 4.41381C5.16061 4.21567 5.0822 4.02558 4.94251 3.88506L3.97501 2.91756C3.83154 2.79469 3.64698 2.73048 3.45822 2.73777C3.26947 2.74507 3.09041 2.82331 2.95684 2.95689C2.82327 3.09046 2.74502 3.26951 2.73773 3.45827C2.73044 3.64702 2.79464 3.83158 2.91751 3.97506L3.88501 4.94256ZM15.945 10.4401L14.625 10.0876C14.5272 10.0537 14.4234 10.0405 14.3203 10.0488C14.2171 10.057 14.1167 10.0865 14.0255 10.1355C13.9343 10.1844 13.8542 10.2516 13.7903 10.333C13.7263 10.4144 13.6799 10.5081 13.654 10.6083C13.628 10.7085 13.6231 10.813 13.6395 10.9152C13.6559 11.0174 13.6932 11.1151 13.7492 11.2021C13.8052 11.2892 13.8786 11.3637 13.9648 11.421C14.051 11.4783 14.1481 11.5171 14.25 11.5351L15.57 11.8876H15.765C15.9639 11.9134 16.165 11.8592 16.3239 11.7368C16.4828 11.6145 16.5867 11.434 16.6125 11.2351C16.6384 11.0361 16.5842 10.8351 16.4618 10.6762C16.3394 10.5172 16.1589 10.4134 15.96 10.3876L15.945 10.4401ZM11.535 14.2501C11.509 14.155 11.4644 14.066 11.404 13.9881C11.3435 13.9102 11.2683 13.8451 11.1826 13.7963C11.0969 13.7475 11.0025 13.7162 10.9047 13.7039C10.8068 13.6917 10.7076 13.6989 10.6125 13.7251C10.4222 13.7777 10.2603 13.9033 10.162 14.0747C10.0637 14.246 10.0369 14.4491 10.0875 14.6401L10.44 15.9601C10.484 16.1237 10.582 16.2676 10.7182 16.3684C10.8544 16.4692 11.0207 16.5209 11.19 16.5151C11.2548 16.5221 11.3202 16.5221 11.385 16.5151C11.4808 16.4898 11.5706 16.4459 11.6493 16.3858C11.728 16.3256 11.794 16.2505 11.8435 16.1648C11.893 16.079 11.925 15.9843 11.9377 15.8861C11.9504 15.7879 11.9436 15.6881 11.9175 15.5926L11.535 14.2501ZM14.115 13.0726C13.9715 12.9497 13.787 12.8855 13.5982 12.8928C13.4095 12.9001 13.2304 12.9783 13.0968 13.1119C12.9633 13.2455 12.885 13.4245 12.8777 13.6133C12.8704 13.802 12.9346 13.9866 13.0575 14.1301L14.025 15.0976C14.1655 15.2372 14.3556 15.3157 14.5538 15.3157C14.7519 15.3157 14.942 15.2372 15.0825 15.0976C15.2222 14.957 15.3006 14.7669 15.3006 14.5688C15.3006 14.3707 15.2222 14.1806 15.0825 14.0401L14.115 13.0726ZM15.9 5.25006C15.9117 4.62639 15.7361 4.01354 15.396 3.49063C15.0559 2.96773 14.5669 2.55877 13.992 2.31657C13.4172 2.07436 12.7829 2.01002 12.1712 2.13186C11.5594 2.25369 10.9982 2.5561 10.56 3.00006L7.91251 5.67006C7.8416 5.74146 7.78544 5.82614 7.74725 5.91925C7.70906 6.01236 7.68959 6.11207 7.68994 6.21271C7.69028 6.31335 7.71045 6.41293 7.74928 6.50577C7.78812 6.59861 7.84486 6.68289 7.91626 6.75381C7.98767 6.82472 8.07234 6.88088 8.16545 6.91907C8.25856 6.95726 8.35828 6.97673 8.45891 6.97639C8.55955 6.97604 8.65913 6.95587 8.75197 6.91704C8.84482 6.8782 8.9291 6.82146 9.00001 6.75006L11.625 4.08006C11.9336 3.78395 12.3448 3.61861 12.7725 3.61861C13.2002 3.61861 13.6114 3.78395 13.92 4.08006C14.0719 4.23005 14.1926 4.40872 14.2749 4.60571C14.3572 4.80269 14.3996 5.01406 14.3996 5.22756C14.3996 5.44106 14.3572 5.65243 14.2749 5.84941C14.1926 6.04639 14.0719 6.22506 13.92 6.37506L11.25 9.00006C11.1103 9.14058 11.0319 9.33067 11.0319 9.52881C11.0319 9.72695 11.1103 9.91704 11.25 10.0576C11.3905 10.1972 11.5806 10.2757 11.7788 10.2757C11.9769 10.2757 12.167 10.1972 12.3075 10.0576L15 7.44006C15.5734 6.85487 15.8962 6.06932 15.9 5.25006Z" fill="white"/>
</svg>
