<svg width="48" height="48" viewBox="0 0 48 48" fill="none" xmlns="http://www.w3.org/2000/svg">
<rect width="48" height="48" rx="4" fill="#E60019"/>
<g clip-path="url(#clip0_1477_10116)">
<path d="M12 24.0002C12 28.914 14.9548 33.1354 19.183 34.9913C19.1493 34.1534 19.177 33.1475 19.3919 32.2358C19.6226 31.2616 20.936 25.6969 20.936 25.6969C20.936 25.6969 20.5526 24.9307 20.5526 23.7983C20.5526 22.0199 21.5833 20.6917 22.8669 20.6917C23.9585 20.6917 24.4858 21.5116 24.4858 22.4933C24.4858 23.5906 23.786 25.2319 23.4261 26.752C23.1254 28.025 24.0643 29.0632 25.3201 29.0632C27.5937 29.0632 29.125 26.143 29.125 22.6831C29.125 20.053 27.3536 18.0845 24.1317 18.0845C20.4916 18.0845 18.2239 20.7991 18.2239 23.8313C18.2239 24.8768 18.5321 25.6141 19.0149 26.185C19.2369 26.4473 19.2678 26.5527 19.1874 26.8538C19.1299 27.0746 18.9977 27.6062 18.9429 27.8168C18.8631 28.1208 18.6168 28.2294 18.3421 28.1172C16.6655 27.4328 15.8846 25.5967 15.8846 23.5327C15.8846 20.1238 18.7596 16.0363 24.4611 16.0363C29.0426 16.0363 32.0581 19.3517 32.0581 22.9105C32.0581 27.618 29.441 31.1348 25.5832 31.1348C24.2876 31.1348 23.069 30.4345 22.6515 29.6391C22.6515 29.6391 21.9548 32.4039 21.8073 32.9378C21.5528 33.8631 21.0548 34.7878 20.5995 35.5086C21.7036 35.835 22.8491 36.0008 24.0005 36.0007C30.6271 36.0007 36.0001 30.6279 36.0001 24.0002C36.0001 17.3727 30.6271 12 24.0005 12C17.3732 12 12 17.3727 12 24.0002Z" fill="white"/>
</g>
<defs>
<clipPath id="clip0_1477_10116">
<rect width="24" height="24" fill="white" transform="translate(12 12)"/>
</clipPath>
</defs>
</svg>
