<svg width="32" height="32" viewBox="0 0 32 32" fill="none" xmlns="http://www.w3.org/2000/svg">
<path d="M20.4588 1.3335H11.5415C5.90377 1.3335 1.3335 5.90377 1.3335 11.5415V20.4588C1.3335 26.0966 5.90377 30.6668 11.5415 30.6668H20.4588C26.0966 30.6668 30.6668 26.0966 30.6668 20.4588V11.5415C30.6668 5.90377 26.0966 1.3335 20.4588 1.3335Z" fill="#F8DE40"/>
<path d="M30.6667 18.584C28.8537 21.299 26.3908 23.5178 23.5019 25.0387C20.613 26.5595 17.3898 27.3341 14.1254 27.292C6.73604 27.292 5.3747 25.9587 1.93604 23.92C2.649 25.8958 3.95382 27.6037 5.67269 28.811C7.39155 30.0183 9.44087 30.6663 11.5414 30.6667H20.4587C23.166 30.6667 25.7625 29.5912 27.6768 27.6768C29.5912 25.7624 30.6667 23.166 30.6667 20.4587V18.584Z" fill="#E7C930"/>
<path d="M22.04 16.4321C21.8371 16.7658 21.6172 17.0889 21.3814 17.4001C20.9884 17.9289 20.527 18.4033 20.0094 18.8108C19.757 19.0139 19.4896 19.1975 19.2094 19.3601C19.1398 19.4047 19.0677 19.4452 18.9934 19.4815C18.92 19.5188 18.848 19.5628 18.7747 19.6015C18.6214 19.6695 18.4734 19.7548 18.3134 19.8188C17.9667 19.9775 17.6027 20.1161 17.2214 20.2574C17.1565 20.2817 17.1016 20.327 17.0657 20.3862C17.0298 20.4454 17.0148 20.515 17.0233 20.5837C17.0318 20.6525 17.0632 20.7163 17.1124 20.765C17.1617 20.8137 17.2259 20.8444 17.2947 20.8521C17.7292 20.8989 18.168 20.8891 18.6 20.8228C19.0032 20.7635 19.3968 20.6514 19.7707 20.4894C19.9579 20.4096 20.14 20.3183 20.316 20.2161L20.332 20.2068C20.5068 20.1008 20.6755 19.985 20.8374 19.8601C21.4906 19.3503 21.9967 18.6762 22.304 17.9068C22.4539 17.5346 22.5535 17.144 22.6 16.7455C22.6 16.7041 22.608 16.6641 22.612 16.6228C22.6202 16.5525 22.6039 16.4816 22.5659 16.4219C22.5279 16.3623 22.4706 16.3175 22.4035 16.2951C22.3364 16.2727 22.2636 16.2741 22.1974 16.2991C22.1312 16.324 22.0757 16.371 22.04 16.4321Z" fill="#864E20"/>
<path d="M28.7386 7.59065C28.6546 7.20531 24.888 6.48531 22.244 6.48531C20.7162 6.33537 19.1793 6.66136 17.844 7.41865C17.2741 7.71662 16.6429 7.87862 16 7.89198C15.3582 7.87945 14.7281 7.71883 14.1586 7.42265C12.8233 6.66536 11.2865 6.33937 9.75864 6.48932C7.11464 6.48932 3.34797 7.20932 3.26397 7.59465C3.17997 7.97998 3.11331 9.21732 3.38131 9.43598C3.64931 9.65465 3.96664 9.46932 4.01731 10.236C4.06797 11.0026 4.65331 14.204 6.42797 15.2586C8.20264 16.3133 11.416 15.476 12.5613 14.772C13.7881 14.0112 14.6828 12.8156 15.0666 11.424C15.2506 10.2346 15.5346 9.41465 16 9.41465C16.4653 9.41465 16.7533 10.2346 16.9333 11.424C17.3188 12.816 18.2154 14.0112 19.444 14.7706C20.5826 15.4746 23.796 16.3106 25.5773 15.2573C27.3586 14.204 27.9373 11.0053 27.988 10.2346C28.0386 9.46398 28.356 9.64932 28.624 9.43465C28.892 9.21998 28.8226 7.97465 28.7386 7.59065Z" fill="#101820"/>
</svg>
