<svg width="32" height="32" viewBox="0 0 32 32" fill="none" xmlns="http://www.w3.org/2000/svg">
<path d="M20.4588 1.3335H11.5415C5.90377 1.3335 1.3335 5.90377 1.3335 11.5415V20.4588C1.3335 26.0966 5.90377 30.6668 11.5415 30.6668H20.4588C26.0966 30.6668 30.6668 26.0966 30.6668 20.4588V11.5415C30.6668 5.90377 26.0966 1.3335 20.4588 1.3335Z" fill="#F8DE40"/>
<path d="M9.40671 9.7505C8.94584 9.74997 8.49517 9.88617 8.11174 10.1419C7.7283 10.3975 7.42933 10.7612 7.25266 11.1869C7.07599 11.6126 7.02955 12.0811 7.11924 12.5331C7.20892 12.9852 7.43069 13.4005 7.75648 13.7264C8.08227 14.0524 8.49744 14.2744 8.94945 14.3644C9.40145 14.4543 9.86998 14.4082 10.2957 14.2317C10.7215 14.0553 11.0854 13.7565 11.3413 13.3732C11.5972 12.99 11.7336 12.5394 11.7334 12.0785C11.733 11.4614 11.4878 10.8697 11.0516 10.4332C10.6154 9.99674 10.0238 9.7512 9.40671 9.7505ZM22.6107 9.7505C22.1497 9.74918 21.6986 9.8847 21.3146 10.1399C20.9307 10.3951 20.6311 10.7585 20.4538 11.1841C20.2765 11.6097 20.2295 12.0783 20.3188 12.5307C20.408 12.983 20.6294 13.3986 20.9551 13.725C21.2807 14.0514 21.6959 14.2738 22.148 14.3641C22.6001 14.4543 23.0688 14.4084 23.4948 14.2321C23.9208 14.0558 24.2849 13.757 24.541 13.3737C24.7971 12.9903 24.9336 12.5395 24.9334 12.0785C24.933 11.4621 24.6884 10.871 24.253 10.4346C23.8177 9.99827 23.2271 9.75226 22.6107 9.7505ZM18.6667 14.9425C18.6107 14.9437 18.5554 14.956 18.5041 14.9785C18.4528 15.0011 18.4065 15.0335 18.3677 15.074C18.329 15.1145 18.2986 15.1623 18.2783 15.2145C18.2579 15.2667 18.2481 15.3225 18.2494 15.3785C18.24 16.0291 18.0042 16.6561 17.5827 17.1518C17.3726 17.3516 17.1237 17.5063 16.8515 17.6063C16.5793 17.7062 16.2896 17.7494 16 17.7332C15.7111 17.7499 15.4218 17.7078 15.1498 17.6092C14.8777 17.5106 14.6285 17.3577 14.4174 17.1598C13.9935 16.6634 13.7575 16.0339 13.7507 15.3812C13.7518 15.3251 13.7418 15.2694 13.7213 15.2173C13.7008 15.1651 13.6703 15.1175 13.6314 15.0771C13.5925 15.0368 13.5461 15.0044 13.4947 14.982C13.4433 14.9596 13.3881 14.9475 13.332 14.9465C13.276 14.9454 13.2203 14.9554 13.1682 14.9759C13.116 14.9964 13.0684 15.0269 13.028 15.0658C12.9876 15.1047 12.9553 15.1511 12.9329 15.2025C12.9105 15.2539 12.8984 15.3091 12.8974 15.3652C12.8987 16.2448 13.2205 17.0938 13.8027 17.7532C14.0925 18.0348 14.4371 18.2539 14.8151 18.3968C15.1931 18.5397 15.5964 18.6034 16 18.5838C16.4037 18.6027 16.807 18.5383 17.1848 18.3947C17.5625 18.2511 17.9068 18.0314 18.196 17.7492C18.7776 17.0894 19.0994 16.2406 19.1014 15.3612C19.0986 15.2482 19.0514 15.1409 18.97 15.0626C18.8886 14.9842 18.7797 14.9411 18.6667 14.9425Z" fill="#864E20"/>
<path d="M30.6667 18.584C28.8537 21.299 26.3908 23.5178 23.5019 25.0387C20.613 26.5595 17.3898 27.3341 14.1254 27.292C6.73604 27.292 5.3747 25.9587 1.93604 23.92C2.649 25.8958 3.95382 27.6037 5.67269 28.811C7.39155 30.0183 9.44087 30.6663 11.5414 30.6667H20.4587C23.166 30.6667 25.7625 29.5912 27.6768 27.6768C29.5912 25.7624 30.6667 23.166 30.6667 20.4587V18.584Z" fill="#E7C930"/>
</svg>
