<?xml version="1.0" encoding="UTF-8"?>
<svg version="1.1" xmlns="http://www.w3.org/2000/svg" width="200" height="200">
<path d="M0 0 C35.64 0 71.28 0 108 0 C108 35.64 108 71.28 108 108 C102.39 108 96.78 108 91 108 C90.67 82.59 90.34 57.18 90 31 C81.45609375 39.60191406 72.9121875 48.20382813 64.109375 57.06640625 C58.70579892 62.4955162 53.30160434 67.92398596 47.89453125 73.34960938 C39.30367607 81.97017405 30.7155236 90.59331938 22.14404297 99.2331543 C15.9024545 105.52449334 9.65220165 111.80706933 3.39127564 118.07916683 C0.07476512 121.40221019 -3.23716491 124.72955168 -6.53876495 128.06741524 C-9.64372964 131.20620727 -12.76010703 134.33318673 -15.8857975 137.45133591 C-17.03343531 138.6003542 -18.17676436 139.75369404 -19.31550407 140.91153145 C-20.86618823 142.48694568 -22.43136366 144.04634166 -24.00128174 145.60255432 C-24.87514149 146.48102304 -25.74900124 147.35949175 -26.64934158 148.26458073 C-29 150 -29 150 -31.16276169 149.89520168 C-33.85047819 148.58560111 -35.68993329 146.78263451 -37.8125 144.6875 C-39.02873047 143.51767578 -39.02873047 143.51767578 -40.26953125 142.32421875 C-42 140 -42 140 -41.89565372 138.16478348 C-40.63667991 135.12186005 -38.73121008 133.36303019 -36.40000916 131.03924561 C-35.91729555 130.55396873 -35.43458195 130.06869185 -34.93724066 129.56870961 C-33.3166884 127.94321293 -31.68564076 126.32867594 -30.05444336 124.71386719 C-28.8911048 123.55137476 -27.72842627 122.38822151 -26.56636047 121.22445679 C-23.40791432 118.0651487 -20.24029338 114.91518572 -17.07097316 111.76679134 C-13.76108694 108.47563887 -10.45967527 105.17600809 -7.15736389 101.8772583 C-0.90184498 95.63106955 5.36128308 89.39256849 11.62716526 83.15677762 C20.09322088 74.73050033 28.5475044 66.29242951 37.00244617 57.85500336 C50.32534632 44.56032558 63.66393399 31.28150111 77 18 C51.59 17.67 26.18 17.34 0 17 C0 11.39 0 5.78 0 0 Z " fill="#000000" transform="translate(67,25)"/>
</svg>
