<svg width="15" height="11" viewBox="0 0 15 11" fill="none" xmlns="http://www.w3.org/2000/svg">
<path d="M14.148 1.46042L5.14798 10.4604C5.09574 10.5127 5.0337 10.5542 4.96541 10.5825C4.89713 10.6108 4.82393 10.6254 4.75001 10.6254C4.67609 10.6254 4.60289 10.6108 4.5346 10.5825C4.46632 10.5542 4.40428 10.5127 4.35204 10.4604L0.414539 6.52292C0.308991 6.41737 0.249695 6.27421 0.249695 6.12495C0.249695 5.97568 0.308991 5.83253 0.414539 5.72698C0.520087 5.62143 0.66324 5.56213 0.812508 5.56213C0.961775 5.56213 1.10493 5.62143 1.21048 5.72698L4.75001 9.26721L13.352 0.664478C13.4576 0.55893 13.6007 0.499634 13.75 0.499634C13.8993 0.499634 14.0424 0.55893 14.148 0.664478C14.2535 0.770025 14.3128 0.913179 14.3128 1.06245C14.3128 1.21171 14.2535 1.35487 14.148 1.46042Z" fill="black"/>
</svg>
